<svg id="Layer_1" enable-background="new 0 0 511.985 511.985" height="512" viewBox="0 0 511.985 511.985" width="512" xmlns="http://www.w3.org/2000/svg"><g><g><path d="m245.465 105.831-57.771 57.771c-2.519 2.519-6.808 1.5-7.926-1.882l-15.172-45.911c-5.55-16.793-14.954-32.054-27.46-44.56l-2.292-2.292c-14.946-14.946-39.179-14.947-54.126-.001-9.343 9.342-9.343 24.489-.001 33.831l11.832 11.832c8.28 8.28 14.245 18.586 17.299 29.891l17.054 63.118c.247 10.461-3.8 20.567-11.199 27.966l-26.19 26.19 118.403 118.403 38.74-38.74c5.663-5.663 12.804-9.564 20.708-10.862l10.679-1.935c11.855-1.946 22.802-7.562 31.297-16.057l188.156-188.156c9.342-9.342 9.342-24.488 0-33.829-9.342-9.342-24.488-9.342-33.829 0l-93.707 93.707z" fill="#d19a6e"/><g fill="#bc845e"><path d="m134.844 68.955 2.291 2.291c12.509 12.509 21.913 27.768 27.464 44.562l15.167 45.912c1.117 3.38 5.409 4.405 7.927 1.888l-21.213 21.213c-2.517 2.517-6.809 1.492-7.927-1.888l-15.167-45.912c-5.551-16.794-14.955-32.053-27.464-44.562l-2.291-2.291c-10.656-10.656-26.043-13.711-39.407-9.171.905-4.412 3.076-8.62 6.498-12.042 14.942-14.941 39.174-14.948 54.122 0z"/><path d="m497.491 90.607c9.341 9.341 9.341 24.487 0 33.828l-21.213 21.213c9.341-9.341 9.341-24.487 0-33.828-4.667-4.667-10.79-7-16.914-7s-12.247 2.333-16.914 7l21.213-21.213c4.667-4.667 10.79-7 16.914-7s12.247 2.333 16.914 7z"/><path d="m396.006 158.266-49.391 49.391c-9.342 9.342-24.488 9.342-33.829 0-9.342-9.342-9.342-24.488 0-33.829l49.391-49.391c9.342-9.342 24.488-9.342 33.829 0 9.341 9.342 9.341 24.488 0 33.829z"/></g><path d="m396.007 124.435c4.667 4.667 7 10.79 7 16.914s-2.334 12.247-7 16.914l-21.213 21.213c4.667-4.667 7-10.79 7-16.914s-2.333-12.247-7-16.914c-9.341-9.341-24.487-9.341-33.828 0l21.213-21.213c9.341-9.341 24.487-9.341 33.828 0z" fill="#ad775c"/><path d="m362.176 124.437-62.923 62.923c-9.342 9.342-24.488 9.342-33.829 0-9.342-9.342-9.342-24.488 0-33.829l62.923-62.923c9.342-9.342 24.488-9.342 33.829 0 9.342 9.341 9.342 24.487 0 33.829z" fill="#bc845e"/><path d="m362.179 90.607c4.667 4.667 7 10.79 7 16.914s-2.333 12.247-7 16.914l-21.213 21.213c4.667-4.667 7-10.79 7-16.914s-2.333-12.247-7-16.914c-9.341-9.341-24.487-9.341-33.828 0l21.213-21.213c9.341-9.341 24.487-9.341 33.828 0z" fill="#ad775c"/><path d="m328.347 90.608-49.391 49.391c-9.342 9.342-24.488 9.342-33.829 0-9.342-9.342-9.342-24.488 0-33.829l49.391-49.391c9.342-9.342 24.488-9.342 33.829 0 9.342 9.341 9.342 24.487 0 33.829z" fill="#bc845e"/><path d="m328.351 56.779c4.667 4.667 7 10.79 7 16.914s-2.333 12.247-7 16.914l-21.213 21.213c4.667-4.667 7-10.79 7-16.914s-2.333-12.247-7-16.914c-9.341-9.341-24.487-9.341-33.828 0l21.213-21.213c9.341-9.341 24.487-9.341 33.828 0z" fill="#ad775c"/><path d="m183.557 437.021 30.446-30.446c5.605-5.605 5.605-14.693 0-20.298l-131.258-131.259c-5.605-5.605-14.693-5.605-20.298 0l-30.446 30.446c-5.605 5.605-5.605 14.693 0 20.298l131.258 131.258c5.605 5.606 14.693 5.606 20.298.001z" fill="#ffe07d"/><path d="m157.17 430.931-27.064 27.064c-5.605 5.605-14.693 5.605-20.298 0l-98.104-98.105c-5.605-5.605-5.605-14.693 0-20.298l27.064-27.064z" fill="#ffc269"/><path d="m82.745 255.024 131.253 131.253c5.607 5.607 5.614 14.694.007 20.301l-21.213 21.213c5.607-5.607 5.6-14.694-.007-20.301l-131.254-131.253c-5.607-5.607-14.694-5.614-20.301-.007l21.213-21.213c5.608-5.608 14.694-5.601 20.302.007z" fill="#ffd064"/></g><path d="m480.579 76.101c-8.393 0-16.283 3.269-22.219 9.203l-48.724 48.725c-1.3-5.462-4.073-10.642-8.326-14.896-6.769-6.769-15.883-9.79-24.751-9.079.711-8.868-2.31-17.981-9.079-24.75s-15.882-9.79-24.75-9.079c.711-8.868-2.31-17.981-9.079-24.75-12.251-12.25-32.184-12.252-44.437 0l-103.708 103.708-13.79-41.727c-5.886-17.814-16.011-34.243-29.278-47.51l-2.292-2.292c-17.846-17.847-46.884-17.847-64.732-.002-5.935 5.935-9.204 13.826-9.204 22.219s3.269 16.284 9.204 22.219l11.832 11.832c7.342 7.342 12.654 16.521 15.362 26.544l16.804 62.195c-.038 8.07-3.294 15.911-9.013 21.63l-20.887 20.887-1.463-1.463c-8.521-8.521-22.384-8.521-30.904 0l-30.447 30.446c-8.52 8.521-8.52 22.384 0 30.904l1.463 1.463-21.761 21.761c-4.127 4.127-6.4 9.615-6.4 15.452s2.273 11.325 6.4 15.452l98.105 98.105c4.127 4.127 9.615 6.401 15.453 6.401 5.837 0 11.325-2.273 15.452-6.401l21.76-21.76.786.786c4.26 4.26 9.856 6.39 15.452 6.39s11.192-2.13 15.452-6.39l30.446-30.446c8.52-8.52 8.52-22.383 0-30.904l-.786-.786 33.436-33.436c4.725-4.725 10.472-7.755 16.619-8.764l.123-.021 10.62-1.925c13.461-2.223 25.674-8.496 35.322-18.145l153.663-153.663c2.929-2.929 2.929-7.678 0-10.606-2.93-2.929-7.678-2.929-10.607 0l-153.662 153.662c-7.43 7.43-16.839 12.257-27.208 13.959-.041.007-.082.014-.123.021l-10.62 1.925c-9.24 1.531-17.791 6.007-24.732 12.949l-33.436 33.436-107.797-107.796 20.887-20.887c8.806-8.807 13.688-20.998 13.394-33.447-.014-.601-.101-1.198-.258-1.779l-17.054-63.118c-3.391-12.551-10.042-24.044-19.236-33.238l-11.831-11.832c-6.413-7.741-6.413-15.483 0-23.224 11.999-11.997 31.522-11.997 43.52.001l2.292 2.292c11.62 11.62 20.486 26.008 25.642 41.61l15.173 45.911c1.348 4.078 4.647 7.105 8.826 8.097 4.179.991 8.486-.229 11.523-3.266l38.5-38.5c1.3 5.463 4.073 10.643 8.327 14.896 4.5 4.5 10.038 7.341 15.85 8.535-7.55 12.121-6.073 28.305 4.447 38.826 6.126 6.125 14.173 9.188 22.219 9.188 5.766 0 11.529-1.582 16.589-4.729 1.223 5.959 4.153 11.437 8.554 15.837 6.127 6.126 14.171 9.189 22.219 9.188 8.045-.001 16.093-3.063 22.218-9.188l117.05-117.049c6.401-6.403 16.821-6.403 23.223 0 6.402 6.402 6.402 16.82 0 23.223l-9.744 9.744c-2.929 2.929-2.929 7.678 0 10.606 2.93 2.929 7.678 2.929 10.607 0l9.744-9.744c12.25-12.251 12.25-32.185 0-44.436-5.937-5.931-13.827-9.2-22.22-9.2zm-271.879 325.17-30.446 30.446c-2.672 2.672-7.02 2.672-9.691 0l-89.899-89.899c-2.929-2.929-7.678-2.929-10.606 0-2.929 2.929-2.929 7.678 0 10.606l78.507 78.507-21.761 21.76c-3.23 2.676-6.46 2.676-9.69 0l-98.105-98.105c-2.676-3.23-2.676-6.461 0-9.691l21.76-21.76 4.541 4.541c2.929 2.929 7.678 2.929 10.606 0 2.929-2.929 2.929-7.678 0-10.606l-16.61-16.61c-2.672-2.672-2.671-7.02 0-9.691l30.446-30.446c2.672-2.672 7.02-2.672 9.691 0l131.257 131.256c2.672 2.672 2.672 7.02 0 9.692zm41.73-289.798 49.392-49.391c6.402-6.401 16.819-6.402 23.222 0 6.403 6.403 6.403 16.82 0 23.223l-49.395 49.394c-6.403 6.398-16.818 6.397-23.219-.004-6.403-6.402-6.403-16.82 0-23.222zm20.298 70.584c-6.402-6.403-6.402-16.82 0-23.223l62.923-62.922c7.74-6.402 15.481-6.402 23.222 0 6.403 6.402 6.403 16.82 0 23.223l-62.922 62.923c-6.403 6.401-16.823 6.401-23.223-.001-6.403-6.403 6.4 6.402 0 0zm70.583 20.297c-6.402 6.403-16.818 6.402-23.223 0-6.411-7.74-6.411-15.48-.002-23.22l49.393-49.394c6.402-6.402 16.82-6.402 23.223 0 6.403 6.403 6.403 16.82 0 23.223z"/></g></svg>